<svg id="Layer_1" data-name="Layer 1" xmlns="http://www.w3.org/2000/svg" viewBox="0 0 614.7 614.73"><defs><style>.cls-1{stroke:#fff;stroke-miterlimit:10;}</style></defs><title>boost</title><path class="cls-1" d="M295.55,142.36C389.84,48.08,537.15-4.95,613.75.94c5.9,76.6-47.14,223.92-141.42,318.2S272,484.14,213.06,507.7L107,401.64c23.57-58.93,94.29-165,188.56-259.28ZM272,342.71l-165,165" transform="translate(0 0)"/><circle class="cls-1" cx="442.87" cy="171.82" r="50"/><path class="cls-1" d="M389.84,401.64l6.53,71.9a100,100,0,0,1-42.24,91l-70.36,49.25-5.89-135.57M213.06,224.86l-71.9-6.54a100,100,0,0,0-91,42.25L.93,330.92l135.53,5.9" transform="translate(0 0)"/></svg>