<svg id="Layer_1" data-name="Layer 1" xmlns="http://www.w3.org/2000/svg" viewBox="0 0 614.7 614.7"><defs><style>.cls-1{fill:#fff;stroke:#fff;stroke-miterlimit:10;}</style></defs><title>boost</title><path class="cls-1" d="M387.3,238.14C481.59,143.86,628.9,90.83,705.5,96.72c5.9,76.6-47.14,223.92-141.42,318.2s-200.35,165-259.27,188.56L198.74,497.42c23.57-58.93,94.29-165,188.56-259.28ZM363.73,438.49l-165,165" transform="translate(-91.75 -95.78)"/><circle class="cls-1" cx="442.87" cy="171.82" r="50"/><path class="cls-1" d="M481.59,497.42l6.53,71.9a100,100,0,0,1-42.24,91l-70.36,49.25L369.63,574M304.81,320.64l-71.9-6.54a100,100,0,0,0-91,42.25L92.68,426.7l135.53,5.9" transform="translate(-91.75 -95.78)"/></svg>