<svg id="svg2793" xmlns="http://www.w3.org/2000/svg" viewBox="0 0 786.86 800.49"><title>connect</title><g id="_24-Connect" data-name=" 24-Connect"><g id="g2211"><path id="path2209" d="M411.11,532.14a127,127,0,1,1,127-127,127,127,0,0,1-127,127M178,753.14a69.68,69.68,0,1,1,69.67-69.69h0A69.76,69.76,0,0,1,178,753.14M46.87,130.47a83.59,83.59,0,1,1,83.6,83.58,83.58,83.58,0,0,1-83.6-83.58m643.91,57.81a49.21,49.21,0,1,1-49.22,49.2h0a49.25,49.25,0,0,1,49.22-49.2M621.31,303.77a96,96,0,1,0-23.19-40.88L547.19,297a173.62,173.62,0,0,0-243.91-28.19l-.67.53L233.83,209.9A130.42,130.42,0,1,0,0,130.47c0,71.94,58.53,130.45,130.47,130.45a129.66,129.66,0,0,0,68.28-19.35l71.49,61.77a173.51,173.51,0,0,0,9.93,216.07l-47.82,61a116.81,116.81,0,1,0,36.2,29.8l47-59.91A172.83,172.83,0,0,0,411.11,579C507,579,585,501,585,405.12a172.78,172.78,0,0,0-13.76-67.79Z"/></g><g id="g2215"><path id="path2213" d="M695.11,725.06A44.88,44.88,0,1,1,740,680.17a44.88,44.88,0,0,1-44.87,44.89m0-136.64a91.76,91.76,0,1,0,91.75,91.77v0a91.88,91.88,0,0,0-91.75-91.75"/></g></g></svg>