<svg id="svg2793" xmlns="http://www.w3.org/2000/svg" viewBox="0 0 786.86 800"><defs><style>.cls-1{fill:#fff;}</style></defs><title>data-element-connect-infographic-organization-graph-svgrepo-com</title><g id="_24-Connect" data-name=" 24-Connect"><g id="g2211"><path id="path2209" class="cls-1" d="M417.69,532.14a127,127,0,1,1,127-127,127.14,127.14,0,0,1-127,127m-233.13,221a69.68,69.68,0,1,1,69.67-69.68,69.76,69.76,0,0,1-69.67,69.68M53.45,130.47a83.59,83.59,0,1,1,83.6,83.58,83.69,83.69,0,0,1-83.6-83.58m643.91,57.81a49.21,49.21,0,1,1-49.22,49.2,49.25,49.25,0,0,1,49.22-49.2M627.89,303.77a96,96,0,1,0-23.19-40.88L553.77,297a173.62,173.62,0,0,0-244.58-27.66l-68.78-59.44a129.85,129.85,0,0,0,27.09-79.46C267.5,58.53,209,0,137.05,0S6.58,58.53,6.58,130.47,65.11,260.92,137.05,260.92a129.66,129.66,0,0,0,68.28-19.35l71.49,61.77a173.5,173.5,0,0,0,9.93,216.07l-47.82,61a116.81,116.81,0,1,0,36.2,29.8l47-59.91A172.84,172.84,0,0,0,417.69,579c95.87,0,173.87-78,173.87-173.88a172.92,172.92,0,0,0-13.76-67.79Z" transform="translate(-6.58 0)"/></g><g id="g2215"><path id="path2213" class="cls-1" d="M701.69,725.06a44.88,44.88,0,1,1,44.87-44.89,44.94,44.94,0,0,1-44.87,44.89m0-136.64a91.76,91.76,0,1,0,91.75,91.75,91.87,91.87,0,0,0-91.75-91.75" transform="translate(-6.58 0)"/></g></g></svg>