<svg id="Layer_1" data-name="Layer 1" xmlns="http://www.w3.org/2000/svg" viewBox="0 0 423.66 134.43"><defs><style>.cls-1{fill:#fff;}</style></defs><title>first</title><path d="M-209.26,99.93c-12,5.2-19.9,19.6-17.3,31.6,2.3,10.6,6,15.8,16.7,23.4,8,5.7,12.2,7.5,17.6,7.5,6.7,0,11.2-1.7,16.1-6,7.7-6.8,9.4-15,6.3-31.8-2.2-12.6-7.4-19.9-17.1-24.3C-191.86,98-204.46,97.83-209.26,99.93Zm20,2.5c5.6,2.1,11.8,7.1,11.8,9.6,0,.7.5,1.4,1,1.4s1,.7,1,1.5c0,1.9-1.9,1.9-4.4,0a7.47,7.47,0,0,0-3-1.5c-.5,0,1,1.3,3.5,2.9,6.7,4.2,8.5,8.5,8.4,20.3,0,9.2-.1,9.7-3.4,14.5a29,29,0,0,1-5.5,6.3c-2,1.2-2,1.2-.4-.7,2.4-2.6,4.8-9.8,4.8-14.2,0-3.9-2.5-12.7-4.3-14.9-2-2.5-6.8-4.3-11.6-4.4-11.9,0-19.4,12.1-14.6,23.6a9.28,9.28,0,0,0,4.8,5.1l3.2,1.4-2.8.1a14.83,14.83,0,0,1-9.6-4.4c-.7-.9-1.7-1.4-2.1-1.1-1.6,1-8.1-7.4-10.1-13-5.7-16.3,6.9-34.1,24.3-34.4A28,28,0,0,1-189.26,102.43Zm5.4,24.9c9.4,5.7,5.3,18.9-7.3,23.7-4,1.6-4.7,1.6-7.7.1-3.7-1.7-6.6-6.9-6.6-11.7,0-4.1,3.4-10.1,6.8-12.3C-195,124.93-187.76,124.93-183.86,127.33Zm5.9,21.8c-1.1,4.5-3.4,7.4-7.3,9-5,2.1-13.1,1.3-16.8-1.6l-2.9-2.3,5,.6c5.8.7,12.2-1.3,17.5-5.5C-178.06,145.73-177.06,145.73-178,149.13Z" transform="translate(227.06 -31.25)"/><path d="M-204.86,115.23c-5.6,3.8-9.4,9.1-10,13.7l-.6,4,1.4-4.2c2-6.2,5.2-10,10.9-13.3,2.9-1.6,4.5-3,3.7-3A18.33,18.33,0,0,0-204.86,115.23Z" transform="translate(227.06 -31.25)"/><path class="cls-1" d="M167.15,52.1c-13,11.24-23.67,21.66-23.67,22.89,0,1,2.47,2.24,5.76,2.65,3.09.41,5.56,1.84,5.56,3.07,0,4.49-20.79,29.82-31.49,38.41-13.38,10.62-34,20.43-45.9,21.86-13,1.43-11.33,5.92,5.14,14.09,17.09,8.38,35.4,11.45,61.75,10.42,20.79-.81,21.41-1,27-7.15,12.15-13.48,24.7-60.88,25.32-96.23.21-20.63-1.23-31.26-4.32-30.85C191.44,31.26,180.11,40.66,167.15,52.1ZM189.79,76c-3.09,29.83-4.53,33.09-24.29,51.28-7.62,7.15-11.73,11.24-9.06,9.6,2.47-1.63,9.27-7.56,14.82-12.67,5.77-5.31,10.3-8.37,10.3-6.94,0,6.33-11.12,32.28-15.65,36.57-4.32,3.88-7.82,4.9-23.46,5.51-20,1-27.79-.4-22.64-3.88,2.88-1.84-2.27-1.22-12.56,1.43-3.29.82-8.85-1-17.91-6.13-5.14-3.06-3.29-5.72,5.77-8.37,19.76-5.72,52.28-34.12,63.6-55.78,2.06-3.88,1.85-5.72-.83-10-3.29-4.9-3.29-5.31,2.47-10.83,3.09-3.06,10.91-9.81,17.09-14.91,10.91-9,11.32-9.2,13-4.91C191.44,48.63,191.23,61.5,189.79,76Z" transform="translate(227.06 -31.25)"/><path d="M-107.76,102.83c-8.2,3-12.3,7.1-26.2,25.6-2.7,3.6-6.4,8.3-8.2,10.4s-3.3,4.5-3.3,5.2c0,1.5,14.9,12.3,21.8,15.8,20.7,10.5,41,5.4,51.9-13.1,3.3-5.6,2.8-8.7-1.3-9.1-2.8-.3-3.9.5-9.9,7.1-7.9,8.7-12.4,11.6-19.4,12.2a23.88,23.88,0,0,0-7.1,1.5c-1.2.7-4.2,1.2-6.6,1.2-3.6,0-5.7-.8-9.9-3.8-3-2-5.7-4.5-6-5.6a3.06,3.06,0,0,0-3-1.8c-3.2,0-5.6-1-4.9-2.1a.55.55,0,0,0-.5-.9c-1.9,0-1.2-3.9.9-5.2,1.1-.7,2-1.8,2-2.5a1.87,1.87,0,0,1,.8-1.5,91.78,91.78,0,0,0,7.1-9c10.3-14.3,18.4-21.3,25.8-22.4,6-.9,9,.1,13.4,4.6,4.1,4.2,4.9,5.6,2.4,4.6-2.2-.8-1.8.7.5,2.2,1.6,1,2,2.3,2,7.2,0,8.5-3.8,16.4-10.9,22.8-9.4,8.3-11.4,11.4-4.7,7.3,4.8-3,13-12.1,15.6-17.5,5.4-11.3,2.7-25.3-6.2-31.9C-95.06,101.63-102.76,101-107.76,102.83Zm34,41.8a32.92,32.92,0,0,1-5,6.2c-2.1,2-3.5,3.6-3.2,3.6s-.3.8-1.4,1.9c-1.8,1.8-8.4,4.6-13.1,5.6-1.4.3-3.7.8-5.2,1.1-1.9.4-2.8.2-2.8-.6,0-.6-.8-.9-1.7-.6-2.1.7-5.1-.9-3.9-2.1.4-.4,3.8-.8,7.4-.8,4,0,7.2-.5,8-1.3a6,6,0,0,1,3.3-1.2c1.1,0,1.8-.4,1.5-.8s.6-1.5,1.9-2.2,2.5-1.6,2.5-2c0-1,8.5-9.7,10.1-10.2C-73.06,140.33-72.36,141.93-73.76,144.63Z" transform="translate(227.06 -31.25)"/><path d="M-105.06,117.23a83.36,83.36,0,0,0-9.5,10.7c-3,3.8-6.7,8.3-8.3,9.9a21.7,21.7,0,0,0-3.8,5.7,6.93,6.93,0,0,1-3.1,3.6c-1.9.9-1.7,1,1.3,1,1.9,0,5.6.3,8.1.6,5.8.7,11.2-1.6,16.8-7.2,6.2-6.2,9.2-13.2,9-20.8-.2-5.3-.5-6.2-2.3-6.7C-100.26,113.13-100.76,113.33-105.06,117.23Zm8.2.7c2.3,9.1-8.5,25.7-18.3,28.4-3.8,1.1-9,.5-9.9-1.1-.4-.6,1.6-3.3,4.3-6.1s7.3-8.2,10.2-11.9c4.9-6.3,10.6-11.8,12.3-11.8C-97.86,115.43-97.26,116.53-96.86,117.93Z" transform="translate(227.06 -31.25)"/></svg>