<svg id="Layer_1" data-name="Layer 1" xmlns="http://www.w3.org/2000/svg" viewBox="0 0 620.58 673.55"><defs><style>.cls-1{fill:#fff;}</style></defs><title>svgviewer-output</title><g id="A_-_59_growth_grow_hand_success" data-name="A - 59, growth, grow, hand, success"><path class="cls-1" d="M685.64,118.19A12.68,12.68,0,1,0,673,105.58,12.7,12.7,0,0,0,685.64,118.19Z" transform="translate(-89.71 -63.23)"/><path class="cls-1" d="M326.48,243.76A12.68,12.68,0,1,0,313.72,231,12.73,12.73,0,0,0,326.48,243.76Z" transform="translate(-89.71 -63.23)"/><path class="cls-1" d="M183.18,630.76a9.2,9.2,0,0,0-1,.06,10,10,0,1,0,9,16,9.64,9.64,0,0,0,2-7.12A10,10,0,0,0,183.18,630.76Z" transform="translate(-89.71 -63.23)"/><path class="cls-1" d="M181.09,529.66l-.72-1c-1.11-1.48-2.19-2.89-3.24-4.21-.76-1-1.5-1.87-2.22-2.74s-1.42-1.7-2.1-2.47c-1.36-1.54-2.64-2.89-3.81-4-5.76-5.54-11-8.23-16.09-8.23-4,0-7.59,1.64-10.93,3.33-2.14,1.06-4.82,2.34-7.87,3.78-12.86,6.09-39.63,18.77-43.16,26.22-2.89,6.12-.24,15.5,2.83,26.35.84,3,1.71,6,2.5,9.19,6.06,24.23,6.16,52.47,6.25,79.79.11,29.12.2,56.63,7.22,77.34,1.1,3.19,2,3.74,2,3.74v0c1.71,0,5.75-2.38,9.65-4.67,7.87-4.59,23.85-12,42.35-20.54s39.28-18.16,56-26.84c25.24-13.13,28.9-17.88,29.42-19,2.62-5.86,1.23-14.92-4.27-27.65C234.54,613.82,202.56,558.51,181.09,529.66Zm18.09,123.49a20.18,20.18,0,0,1-13.58,7.64,20.79,20.79,0,0,1-2.37.14,20.12,20.12,0,0,1-20-17.89A20.39,20.39,0,0,1,181,620.63a20.74,20.74,0,0,1,2.17-.11,20.23,20.23,0,0,1,20.15,18A19.72,19.72,0,0,1,199.18,653.15Z" transform="translate(-89.71 -63.23)"/><path class="cls-1" d="M556.62,150.15a7.52,7.52,0,0,0,7.48-7.54,7.51,7.51,0,1,0-15,0A7.46,7.46,0,0,0,556.62,150.15Z" transform="translate(-89.71 -63.23)"/><path class="cls-1" d="M669.3,477.52a93.26,93.26,0,0,0-13.13,1c-39.32,5.43-104.68,33.32-135.55,57.71a26.34,26.34,0,0,1-6.16,8.13c-8.87,8-23.47,11-40.69,11-28.53,0-64.25-8.29-93-16l-5.53-1.47a5.12,5.12,0,0,1,2.54-9.92c1.49.38,3.39.88,5.63,1.48C451.1,547.53,492.88,550,507.6,536.71a16.24,16.24,0,0,0,4.1-5.69.36.36,0,0,0,0-.11l0-.08a18.14,18.14,0,0,0,.7-2c0-.05,0-.1,0-.16a26.42,26.42,0,0,0,.27-11c-6.28-40-108.75-61.26-180.33-61.26-13.63,0-25,.84-32.85,2.41-25.45,5-64.37,22.65-118.88,53.89.06.07.11.14.17.2.61.7,1.24,1.44,1.88,2.21l0,0c.66.8,1.34,1.64,2,2.5l.12.15c.67.84,1.36,1.72,2,2.63.08.09.15.19.23.29.69.9,1.39,1.83,2.1,2.78l.2.27c2.26,3,4.61,6.33,7,9.8l.13.19c.79,1.14,1.58,2.29,2.37,3.47l.15.22c2.48,3.66,5,7.49,7.54,11.44l0,.07,2.51,4,.1.15q3.85,6.09,7.68,12.39v0q1.26,2.06,2.5,4.12l.11.19,2.45,4.1s0,.08.07.13c1.66,2.79,3.3,5.59,4.91,8.36h0q1.19,2,2.33,4.05l.15.25,2.23,3.92.16.28c1.51,2.68,3,5.33,4.42,7.92h0l2,3.7.21.39c.65,1.18,1.28,2.35,1.9,3.5l.19.36c.63,1.17,1.24,2.32,1.84,3.45a2.12,2.12,0,0,1,.11.21q1.83,3.45,3.47,6.65c.06.13.13.27.2.39l1.48,2.93.23.45c.48,1,.94,1.89,1.38,2.79l.14.28q1.38,2.82,2.53,5.3a2,2,0,0,0,.1.21c27.16-10.15,51.07-15.1,73-15.1,25.12,0,45.24,6.48,64.71,12.73,20.62,6.64,41.95,13.5,70.6,13.5,4.72,0,9.59-.19,14.49-.56,24.73-1.8,81.48-26.65,134.94-59.09,56.09-34,93-67.3,91.9-82.82C700.6,481.09,683.46,477.52,669.3,477.52Z" transform="translate(-89.71 -63.23)"/><path class="cls-1" d="M180.65,471.64a5.2,5.2,0,0,0,2.51-.66c.9-.51,90.88-50.88,131.25-61,39.57-9.8,188.78,41.85,190.28,42.38l.3.07a5.11,5.11,0,0,0,.53.13,5.35,5.35,0,0,0,.55.05,3,3,0,0,0,.31,0h.15l.57-.06.44-.07a4,4,0,0,0,.49-.16l.46-.16c.15-.07.29-.16.43-.24s.28-.16.41-.25a3.19,3.19,0,0,0,.4-.33c.12-.1.24-.2.35-.31s.21-.26.32-.39.2-.26.29-.4a3.23,3.23,0,0,0,.22-.41,4.74,4.74,0,0,0,.24-.51l.07-.14c0-.1,0-.2.07-.3a4.54,4.54,0,0,0,.12-.53,3.31,3.31,0,0,0,.06-.54c0-.11,0-.21,0-.31V383.68a5,5,0,0,0,2,.86,291.21,291.21,0,0,0,56.17,5.93c44.25,0,79.12-12.46,103.64-37,34.3-34.3,45-89.54,31-159.75a5.11,5.11,0,0,0-4-4,288.17,288.17,0,0,0-56.26-6c-44.09,0-78.94,12.43-103.56,36.95-13.15,13.18-22.83,29.45-29,48.45V163.19c7-35.33,1.4-63.26-16.13-80.79-12.66-12.72-30.56-19.17-53.17-19.17a146.67,146.67,0,0,0-28.31,3,5.12,5.12,0,0,0-4,4c-7.13,35.72-1.55,63.9,16.1,81.49,12.63,12.63,30.48,19,53.06,19h0a140.9,140.9,0,0,0,22.22-1.9V297.93a81,81,0,0,0-17-25.22c-17.23-17.18-41.56-25.89-72.32-25.89a199.51,199.51,0,0,0-38.64,4.08,5.13,5.13,0,0,0-4,4c-9.67,48.66-2.15,87,21.75,110.9,17.15,17.2,41.41,25.92,72.13,25.92h0a199.61,199.61,0,0,0,38.14-4v52.59C470.79,430.06,349.8,390.65,311.94,400c-41.72,10.46-130.06,59.92-133.8,62a5.12,5.12,0,0,0,2.51,9.59ZM517.7,368.73l68.19-71.13-5.58-68.43a5.12,5.12,0,1,1,10.21-.83l4.85,59.37,39.28-41a5.12,5.12,0,0,1,7.39,7.09L558,341.55,619,331.94a5.12,5.12,0,1,1,1.59,10.12l-74.38,11.7-21.49,22.43c-2-.34-3.93-.68-5.91-1.05Q518.24,371.92,517.7,368.73Zm28.9,10.35-3.19-.32Zm-5.9-.63c-1.15-.13-2.29-.26-3.45-.41C538.41,378.19,539.55,378.32,540.7,378.45Zm-5.93-.74-3.71-.52Zm-5.87-.86c-1.35-.21-2.71-.42-4.08-.65C526.19,376.43,527.55,376.64,528.9,376.85Zm20.64,2.49,2.92.23Zm6.13.43,2.59.15Zm6.28.3,2,.07Zm133-181C707.23,264.13,697.27,315,666,346.2c-22.53,22.57-55,34-96.39,34h0c41.43,0,73.86-11.45,96.38-34,31.24-31.24,41.2-82.07,28.89-147.14A274.57,274.57,0,0,0,644,193.92h0A274.76,274.76,0,0,1,694.93,199.06ZM542.14,234l-.23.28ZM513.75,322.2c0,.65,0,1.29,0,1.93C513.74,323.48,513.75,322.84,513.75,322.2Zm25.81-85.08-.47.63Zm-2.45,3.27-.59.85Zm-2.34,3.39c-.22.32-.42.66-.64,1C534.35,244.44,534.55,244.11,534.77,243.78Zm-2.21,3.49-.66,1.12Zm-2.09,3.59-.66,1.23Zm-2,3.7c-.22.44-.43.88-.64,1.31C528.07,255.44,528.28,255,528.5,254.56Zm-1.84,3.81c-.21.46-.42.93-.62,1.39C526.24,259.3,526.45,258.83,526.66,258.37Zm-1.72,3.9c-.21.49-.4,1-.6,1.47C524.54,263.25,524.73,262.76,524.94,262.27Zm-1.6,4-.57,1.54Zm-1.48,4.12c-.18.52-.36,1.06-.53,1.59C521.51,271.46,521.68,270.92,521.86,270.4Zm-1.36,4.21-.48,1.65Zm-1.23,4.31c-.15.57-.3,1.13-.44,1.7C519,280.05,519.12,279.49,519.27,278.92Zm-1.11,4.42c-.13.58-.27,1.16-.4,1.74C517.89,284.5,518,283.92,518.16,283.34Zm-1,4.51-.36,1.79Zm-.86,4.6c-.11.62-.22,1.23-.31,1.85C516.11,293.68,516.21,293.07,516.32,292.45Zm-.74,4.72c-.09.62-.18,1.24-.26,1.87C515.4,298.41,515.49,297.79,515.58,297.17ZM515,302l-.21,1.89Zm-.49,4.9c-.05.64-.11,1.28-.16,1.92C514.36,308.16,514.42,307.52,514.47,306.88Zm-.36,5c0,.65-.09,1.29-.12,1.94Zm-.24,5.11c0,.65,0,1.29-.07,1.94C513.82,318.28,513.85,317.64,513.87,317Zm1.41,34.46c0-.27,0-.53-.08-.8C515.23,350.92,515.25,351.18,515.28,351.45Zm-.56-5.64c0-.47-.07-.94-.11-1.41C514.65,344.87,514.68,345.34,514.72,345.81Zm-.43-5.55c0-.56-.07-1.12-.1-1.68C514.22,339.14,514.25,339.7,514.29,340.26ZM514,334.8c0-.61,0-1.22-.07-1.82C513.94,333.58,514,334.19,514,334.8Zm-.18-5.38c0-.63,0-1.26,0-1.88C513.78,328.16,513.78,328.79,513.8,329.42ZM477,280c1.22,1.22,2.38,2.49,3.51,3.79-1.13-1.3-2.3-2.57-3.52-3.79-15.23-15.19-37.13-22.9-65.07-22.9h0C439.85,257.06,461.75,264.77,477,280Zm9.66,12.17q-1.32-2.11-2.78-4.11Q485.32,290,486.65,292.13Zm-3-4.35q-1.49-2-3.12-3.95Q482.21,285.75,483.69,287.78ZM463.11,381.5c2,0,4-.06,6-.14-2,.08-4,.14-6,.14Zm33.4-3.27q-10.22,1.88-19.78,2.67c4.48-.38,9.09-.93,13.8-1.67l-52.48-54.65L407.82,336a5.25,5.25,0,0,1-1.81.33,5.13,5.13,0,0,1-1.82-9.92l26.14-9.89L411.75,297.2a5.12,5.12,0,1,1,7.39-7.1l49.09,51.12,2.35-35.8a5.13,5.13,0,0,1,10.23.67l-3,45.14,19.74,20.56c3.51-22.7,2.82-42.63-2-59.25C500.87,330.71,501.21,352.84,496.51,378.23Zm-26.46,3.1q3.06-.13,6.21-.39Q473.11,381.2,470.05,381.33Zm16.8-88.88c.87,1.41,1.7,2.85,2.48,4.34C488.55,295.3,487.72,293.86,486.85,292.45Zm2.67,4.69c.78,1.5,1.51,3,2.2,4.59Q490.68,299.38,489.52,297.14Zm2.35,4.93q1,2.39,1.94,4.88C493.21,305.28,492.56,303.66,491.87,302.07Zm2,5.13c.62,1.71,1.18,3.46,1.7,5.25Q494.82,309.77,493.9,307.2ZM479,160.5h0a133.1,133.1,0,0,0,23-2.16c5.44-30.44.67-54.15-13.88-68.7C477.43,78.91,462,73.48,442.19,73.48h0c19.8,0,35.24,5.43,45.92,16.16,14.55,14.55,19.33,38.26,13.88,68.7A133.1,133.1,0,0,1,479,160.5Z" transform="translate(-89.71 -63.23)"/></g></svg>