<svg id="Layer_1" data-name="Layer 1" xmlns="http://www.w3.org/2000/svg" viewBox="0 0 127.81 134.43"><defs><style>.cls-1{fill:#fff;}</style></defs><title>one</title><path class="cls-1" d="M167.15,52.1c-13,11.24-23.67,21.66-23.67,22.89,0,1,2.47,2.24,5.76,2.65,3.09.41,5.56,1.84,5.56,3.07,0,4.49-20.79,29.82-31.49,38.41-13.38,10.62-34,20.43-45.9,21.86-13,1.43-11.33,5.92,5.14,14.09,17.09,8.38,35.4,11.45,61.75,10.42,20.79-.81,21.41-1,27-7.15,12.15-13.48,24.7-60.88,25.32-96.23.21-20.63-1.23-31.26-4.32-30.85C191.44,31.26,180.11,40.66,167.15,52.1ZM189.79,76c-3.09,29.83-4.53,33.09-24.29,51.28-7.62,7.15-11.73,11.24-9.06,9.6,2.47-1.63,9.27-7.56,14.82-12.67,5.77-5.31,10.3-8.37,10.3-6.94,0,6.33-11.12,32.28-15.65,36.57-4.32,3.88-7.82,4.9-23.46,5.51-20,1-27.79-.4-22.64-3.88,2.88-1.84-2.27-1.22-12.56,1.43-3.29.82-8.85-1-17.91-6.13-5.14-3.06-3.29-5.72,5.77-8.37,19.76-5.72,52.28-34.12,63.6-55.78,2.06-3.88,1.85-5.72-.83-10-3.29-4.9-3.29-5.31,2.47-10.83,3.09-3.06,10.91-9.81,17.09-14.91,10.91-9,11.32-9.2,13-4.91C191.44,48.63,191.23,61.5,189.79,76Z" transform="translate(-68.79 -31.25)"/></svg>