<?xml version='1.0' encoding='utf-8'?>
<svg xmlns="http://www.w3.org/2000/svg" width="125.2743mm" height="322.67572mm" viewBox="0 0 125.2743 322.67572" version="1.1" id="svg5" xml:space="preserve"><defs id="defs2" /><g id="layer1"><path style="fill:#000000" d="m 38.51199999999881 322.0799999999999 c -0.639,-0.975 -1.212,-3.966 -1.498,-7.824 -0.412,-5.541 -0.01,-11.574 1.258,-18.899 l 0.677,-3.906 -1.075,-1.782 c -2.273,-3.768 -3.643,-7.456 -4.36,-11.736 l -0.311,-1.853 -1.719,2.329 c -5.878,7.958 -10.681,13.147 -13.962,15.084 -1.418,0.837 -1.814,0.58 -2.048,-1.326 -0.431,-3.513 0.944,-11.176 3.354,-18.701 0.909,-2.838 1.649,-5.576 1.644,-6.085 0,-0.51 -0.276,-1.879 -0.603,-3.043 -0.45,-1.603 -0.596,-2.824 -0.599,-5.027 0,-3.645 0.637,-6.242 2.306,-9.328 l 1.202,-2.224 -0.322,-3.124 c -0.255,-2.472 -0.253,-3.692 0,-5.839 1.148,-9.474 5.922,-16.747 14.21,-21.649 1.838,-1.087 1.886,-1.143 2.039,-2.361 0.415,-3.313 3.482,-10.207 6.734,-15.139 1.797,-2.725 4.492,-6.297 7.556,-10.013 l 1.543,-1.871 -0.846,-1.052 c -0.578,-0.72 -0.889,-1.436 -0.982,-2.266 -0.07,-0.668 -0.216,-1.263 -0.313,-1.323 -0.1,-0.06 -2.788,0.183 -5.982,0.54 -3.193,0.357 -10.986,1.182 -17.317,1.833 -6.332,0.651 -11.773,1.244 -12.091,1.319 -0.319,0.07 -0.641,0.03 -0.717,-0.09 -0.08,-0.123 0.508,-4.678 1.298,-10.121 1.422,-9.799 1.447,-9.92 2.506,-12.061 1.455,-2.942 2.731,-4.157 11.659,-11.104 4.141,-3.223 9.791,-7.66 12.556,-9.861 2.765,-2.202 7.01,-5.506 9.433,-7.343 l 4.406,-3.34 0.177,-1.483 c 0.464,-3.893 2.39,-17.749 3.591,-25.825 4.842,-32.573 9.075,-52.215 14.199,-65.881 2.329,-6.21 7.66,-16.443 11.778,-22.604 5.383,-8.055 12.896,-16.494 15.199,-17.072 3.05,-0.765 8.714,13.865 11.467,29.621 2.506,14.35 2.431,26.288 -0.28,44.318 -1.718,11.425 -8.908,48.378 -12.524,64.366 l -0.644,2.851 2.049,3.102 c 4.514,6.834 9.32,14.864 15.955,26.656 4.743,8.432 5.468,9.914 5.93,12.132 0.539,2.584 0.281,3.833 -2.456,11.889 -1.246,3.666 -2.459,7.245 -2.696,7.954 -0.237,0.708 -0.58,1.345 -0.762,1.415 -0.181,0.07 -1.077,-0.288 -1.99,-0.795 -0.912,-0.506 -7.315,-3.753 -14.227,-7.214 -6.912,-3.462 -13.025,-6.58 -13.585,-6.929 -0.559,-0.35 -1.051,-0.598 -1.092,-0.551 -0.04,0.05 -0.328,0.589 -0.639,1.205 -0.337,0.668 -0.909,1.294 -1.421,1.555 -0.472,0.239 -0.893,0.466 -0.937,0.503 -0.04,0.04 0.228,0.944 0.603,2.017 1.539,4.399 3.672,12.214 4.361,15.972 0.931,5.081 0.846,10.489 -0.232,14.733 l -0.459,1.809 1.535,3.106 c 3.006,6.081 4.003,11.894 3.011,17.558 -0.768,4.386 -2.675,8.676 -5.344,12.027 -0.822,1.031 -1.369,1.96 -1.298,2.204 0.07,0.232 0.264,1.419 0.437,2.638 0.79,5.578 -0.739,10.629 -4.36,14.395 l -1.664,1.73 -0.171,2.603 c -0.327,4.978 -2.058,13.208 -3.644,17.321 -0.857,2.221 -2.144,4.2 -2.731,4.2 -0.608,0 -2.235,-2.105 -3.207,-4.149 -1.437,-3.023 -3.219,-8.699 -4.095,-13.043 -0.708,-3.506 -0.809,-4.559 -0.813,-8.422 v -4.416 l -0.918,1.793 c -0.588,1.149 -1.112,2.764 -1.457,4.498 -1.106,5.547 -2.842,8.927 -6.36,12.386 -1.917,1.885 -2.102,2.169 -3.01,4.63 -2.089,5.664 -6.451,13.685 -10.073,18.524 -1.728,2.308 -5.679,6.455 -6.15,6.455 -0.165,0 -0.476,-0.269 -0.692,-0.598 z m 4.234,-7.612 c 3.331,-4.462 6.869,-10.757 8.851,-15.748 0.819,-2.062 0.952,-2.632 0.555,-2.387 -0.129,0.08 -0.694,0.209 -1.257,0.288 -0.955,0.134 -0.989,0.117 -0.509,-0.261 0.282,-0.222 0.424,-0.404 0.315,-0.404 -0.108,0 0.613,-0.674 1.603,-1.498 3.981,-3.311 6.065,-5.705 7.561,-8.689 1.48,-2.95 2.259,-7.345 1.804,-10.172 -0.313,-1.945 -0.236,-2.248 0.277,-1.088 0.197,0.445 0.444,0.809 0.549,0.809 0.266,0 2.115,-2.771 2.951,-4.423 0.435,-0.861 0.698,-1.813 0.698,-2.53 0,-1.779 -0.977,-5.097 -2.317,-7.864 -1.154,-2.385 -1.226,-2.472 -1.402,-1.719 -1.33,5.685 -1.915,7.78 -2.326,8.334 -0.271,0.364 -1.009,0.854 -1.641,1.089 l -1.149,0.427 -0.71,2.483 c -0.744,2.603 -1.66,5.078 -1.458,3.939 0.106,-0.6 0.361,-1.988 1.315,-7.144 0.305,-1.649 0.35,-1.72 1.091,-1.73 0.686,-0.01 0.813,-0.144 1.117,-1.19 0.559,-1.925 1.659,-7.346 1.659,-8.173 0,-0.753 -0.03,-0.768 -1.629,-0.856 l -1.629,-0.09 -0.364,0.926 c -0.2,0.509 -0.628,1.514 -0.951,2.233 l -0.586,1.308 -0.17,-1.572 c -0.09,-0.865 -0.183,-2.247 -0.198,-3.073 -0.03,-1.47 -0.05,-1.507 -0.95,-1.805 -0.506,-0.167 -1.044,-0.227 -1.196,-0.134 -0.717,0.444 -3.156,6.649 -3.562,9.062 -0.171,1.019 -0.138,1.125 0.355,1.125 0.953,0 1.08,0.731 0.827,4.751 -0.131,2.077 -0.304,3.842 -0.384,3.922 -0.08,0.08 -0.146,-1.104 -0.146,-2.632 0,-1.528 -0.06,-2.839 -0.135,-2.913 -0.285,-0.285 -3.057,2.649 -4.211,4.459 -2.685,4.211 -3.974,9.042 -3.798,14.241 0.1,2.924 0.185,3.361 1.079,5.538 0.535,1.299 0.932,2.402 0.884,2.451 -0.05,0.05 -0.394,-0.152 -0.768,-0.446 l -0.68,-0.535 -0.303,1.391 c -1.044,4.776 -1.853,12.843 -1.851,18.456 0,4.212 0.152,5.351 0.63,4.727 0.159,-0.208 1.131,-1.506 2.159,-2.883 z m 4.114,-17.122 c -0.08,-0.858 2.287,-10.803 2.517,-10.573 0.06,0.06 -0.304,1.758 -0.8,3.782 -0.495,2.025 -1.077,4.455 -1.293,5.401 -0.216,0.946 -0.407,1.571 -0.424,1.39 z m 4.023,-19.221 c 0.08,-0.203 0.689,-2.197 1.358,-4.432 1.402,-4.683 1.507,-4.972 1.291,-3.534 -0.193,1.278 -2.428,8.334 -2.64,8.334 -0.08,0 -0.09,-0.166 0,-0.368 z m 2.846,-9.576 c 0.01,-0.308 0.08,-0.371 0.16,-0.16 0.08,0.191 0.07,0.42 -0.02,0.507 -0.09,0.09 -0.15,-0.07 -0.139,-0.347 z m 22.369,28.068 c 1.131,-3.719 2.481,-11.612 2.481,-14.504 0,-0.968 -0.04,-1.021 -0.661,-0.865 -0.56,0.14 -0.661,0.07 -0.661,-0.435 0,-0.412 0.487,-0.992 1.555,-1.855 2.677,-2.164 4.561,-5.054 5.489,-8.421 0.35,-1.273 0.467,-2.667 0.462,-5.538 0,-5.535 -1.082,-10.907 -3.362,-16.843 -0.494,-1.286 -0.984,-2.577 -1.089,-2.868 -0.105,-0.291 0.233,0.126 0.752,0.926 1.225,1.892 3.088,6.138 4.039,9.204 0.414,1.336 0.812,2.427 0.885,2.423 0.317,-0.01 2.07,-2.679 3.076,-4.677 1.651,-3.277 2.086,-5.324 2.067,-9.728 -0.01,-2.937 -0.136,-4.152 -0.595,-5.864 -0.804,-3 -2.471,-6.979 -3.957,-9.443 -1.171,-1.941 -4.244,-5.957 -4.577,-5.981 -0.08,-0.01 -0.36,1.626 -0.617,3.627 -0.749,5.833 -1.972,12.961 -2.689,15.676 -0.499,1.887 -0.858,2.709 -1.44,3.294 -0.427,0.429 -0.852,0.705 -0.944,0.613 -0.09,-0.09 0.03,-1.396 0.269,-2.897 3.62,-22.653 4.344,-30.343 3.842,-40.789 -0.169,-3.515 -0.385,-6.986 -0.48,-7.713 l -0.173,-1.323 -1.354,-0.08 -1.354,-0.08 -0.872,2.195 c -0.48,1.208 -1.263,2.999 -1.74,3.98 -0.726,1.493 -0.913,2.276 -1.147,4.787 -0.471,5.063 -2.159,12.575 -4.677,20.813 -3.146,10.297 -7.018,21.183 -9.574,26.921 -0.73,1.637 -1.248,3.024 -1.152,3.083 0.328,0.202 3.349,0.691 4.663,0.756 1.239,0.06 1.371,0.139 2.316,1.387 1.945,2.567 3.992,7.55 4.679,11.389 0.291,1.629 1.356,12.642 1.339,13.855 v 0.685 l -0.4,-0.661 c -0.377,-0.625 -0.39,-0.572 -0.235,0.926 0.468,4.502 2.492,12.445 4.131,16.209 0.533,1.222 0.553,1.237 0.808,0.592 0.145,-0.364 0.552,-1.614 0.906,-2.778 z m -1.466,-14.309 c 0.01,-0.309 0.07,-0.371 0.159,-0.16 0.08,0.191 0.07,0.419 -0.02,0.507 -0.09,0.09 -0.151,-0.07 -0.139,-0.347 z m -0.234,-4.212 c 0,-0.436 0.06,-0.583 0.131,-0.325 0.07,0.257 0.06,0.614 0,0.793 -0.07,0.179 -0.128,-0.03 -0.122,-0.468 z m 12.793,-27.384 c 0.622,-2.964 0.357,-7.353 -0.55,-9.1 -0.337,-0.65 -0.338,-0.712 0,-0.439 0.211,0.176 0.599,0.935 0.862,1.688 0.597,1.712 0.583,5.578 -0.03,7.322 -0.229,0.655 -0.354,0.893 -0.277,0.529 z m -66.515,36.314 c 2.63,-3.027 5.679,-6.861 7.508,-9.442 0.715,-1.01 1.942,-2.617 2.726,-3.572 1.568,-1.908 1.78,-2.329 2.326,-4.611 0.205,-0.853 0.845,-2.76 1.422,-4.238 2.451,-6.266 6.33,-10.793 12.04,-14.047 l 2.05,-1.168 1.459,0.779 c 1.47,0.784 5.038,1.976 5.258,1.756 0.118,-0.118 0.209,-1.195 1.021,-12.09 1.502,-20.167 3.374,-35.858 5.067,-42.465 0.968,-3.782 1.127,-4.613 1.14,-5.968 l 0.01,-1.204 -1.873,-0.604 c -1.807,-0.582 -1.885,-0.586 -2.239,-0.118 -0.58,0.768 -4.191,8.855 -5.77,12.921 -2.59,6.667 -4.088,12 -7.433,26.458 -0.809,3.492 -1.536,6.637 -1.618,6.988 l -0.148,0.639 -0.545,-0.545 c -0.523,-0.523 -0.532,-0.652 -0.229,-3.284 0.36,-3.128 1.484,-8.94 2.628,-13.586 0.43,-1.746 0.733,-3.223 0.674,-3.282 -0.26,-0.26 -3.888,0.961 -6.013,2.024 -5.597,2.802 -10.483,7.752 -12.803,12.973 -1.195,2.689 -1.945,6.238 -2.008,9.492 -0.03,1.629 0,3.023 0.08,3.099 0.07,0.08 1.215,-0.898 2.532,-2.164 2.255,-2.165 5.305,-4.284 6.167,-4.284 0.212,0 -0.534,0.847 -1.658,1.883 -4.653,4.288 -8.463,10.478 -9.744,15.831 -0.777,3.251 -0.575,7.543 0.538,11.412 0.796,2.764 0.864,4.258 0.17,3.681 -0.751,-0.623 -4.488,12.179 -5.118,17.53 -0.116,0.982 -0.132,1.786 -0.04,1.786 0.1,0 1.183,-1.161 2.417,-2.58 z m 8.426,-14.883 c 0.156,-0.291 0.343,-0.529 0.416,-0.529 0.07,0 0,0.238 -0.151,0.529 -0.156,0.291 -0.343,0.529 -0.416,0.529 -0.07,0 0,-0.238 0.151,-0.529 z m 10.169,6.094 c 0.361,-1.255 0.61,-2.727 0.563,-3.316 -0.07,-0.818 -0.05,-0.878 0.08,-0.265 0.16,0.759 0.201,0.716 0.931,-1.007 1.038,-2.446 2.554,-4.735 4.521,-6.825 l 1.645,-1.747 -0.121,-1.45 c -0.144,-1.742 0.604,-4.853 1.95,-8.104 0.508,-1.226 0.862,-2.29 0.787,-2.365 -0.196,-0.196 -3.47,1.82 -5.239,3.226 -3.397,2.701 -6.256,7.309 -7.396,11.923 -1.076,4.356 -0.693,10.827 0.86,14.552 0.33,0.79 0.333,0.786 0.551,-0.785 0.12,-0.869 0.51,-2.595 0.867,-3.837 z m 20.657,-33.904 c 4.49,-11.647 9.864,-29.84 10.972,-37.145 0.154,-1.019 0.344,-2.209 0.422,-2.646 0.08,-0.436 -1.275,1.945 -3.006,5.292 -3.623,7.007 -4.585,8.687 -4.952,8.642 -0.33,-0.04 -0.552,-2.811 -0.821,-10.23 l -0.211,-5.821 -0.331,2.382 c -1.684,12.106 -2.356,18.362 -3.92,36.512 -0.364,4.22 -0.717,8.149 -0.785,8.731 l -0.125,1.059 0.491,-1.088 c 0.27,-0.598 1.29,-3.158 2.266,-5.688 z m 28.184,-23.622 c 0.545,-4.884 -0.257,-10.19 -2.931,-19.404 -1.515,-5.217 -2.331,-7.481 -2.697,-7.481 -0.15,0 -0.189,0.466 -0.09,1.125 0.291,2.026 0.471,18.531 0.229,20.947 l -0.237,2.36 0.99,0.895 c 0.545,0.493 1.668,1.722 2.495,2.733 0.827,1.011 1.595,1.838 1.707,1.838 0.111,0 0.354,-1.355 0.538,-3.013 z m -44.564,-6.379 c 1.255,-0.364 2.545,-0.662 2.866,-0.662 0.519,0 0.723,-0.439 1.866,-4.035 1.893,-5.956 3.924,-11.255 5.846,-15.255 0.937,-1.951 1.667,-3.585 1.621,-3.63 -0.164,-0.165 -3.321,3.811 -5.804,7.31 -4.852,6.836 -7.165,11.069 -8.494,15.544 -0.226,0.764 -0.361,1.389 -0.298,1.389 0.06,0 1.141,-0.298 2.397,-0.661 z m 22.882,-14.766 c 0.729,-4.539 1.62,-10.456 1.98,-13.148 2.117,-15.845 4.058,-25.671 7.133,-36.115 0.772,-2.62 1.36,-4.806 1.307,-4.859 -0.167,-0.17 -3.036,4.397 -4.221,6.72 -2.88,5.644 -5.096,14.489 -6.327,25.258 -1.08,9.443 -2.072,25.887 -1.979,32.809 l 0.02,1.455 0.381,-1.934 c 0.209,-1.063 0.977,-5.647 1.707,-10.186 z m 8.941,-8.149 c 2.229,-6.227 5.079,-16.652 5.977,-21.863 0.744,-4.311 1.195,-9.618 1.166,-13.695 -0.04,-5.479 -0.343,-6.464 -0.571,-1.852 -0.219,4.442 -1.196,11.334 -2.433,17.165 -1.088,5.134 -4.619,19.524 -5.553,22.635 -1.288,4.292 -0.501,2.96 1.414,-2.39 z m 40.058,0.497 c 0.483,-1.238 0.728,-2.256 0.632,-2.633 -0.09,-0.338 -2.219,-3.65 -4.739,-7.361 -9.119,-13.426 -14.31,-21.038 -14.485,-21.242 -0.1,-0.114 -0.69,1.791 -1.317,4.234 -0.626,2.442 -1.962,7.345 -2.97,10.894 -1.007,3.549 -1.735,6.547 -1.617,6.662 0.118,0.115 2.119,1.099 4.447,2.187 2.329,1.087 7.508,3.65 11.51,5.693 4.002,2.044 7.383,3.687 7.513,3.651 0.131,-0.04 0.592,-0.975 1.026,-2.085 z m -32.881,-1.275 c 2.661,-0.421 2.623,-0.393 3.734,-2.798 0.566,-1.224 1.029,-2.353 1.029,-2.508 0,-0.304 -7.647,-0.06 -7.987,0.256 -0.1,0.09 -0.601,1.329 -1.113,2.747 l -0.932,2.58 h 1.775 c 0.976,0 2.548,-0.125 3.494,-0.275 z m -19.228,-2.832 c 0.09,-0.691 0.232,-2.213 0.328,-3.382 l 0.173,-2.125 -2.212,-0.634 c -2.381,-0.683 -5.561,-1.92 -6.477,-2.52 -0.537,-0.352 -0.573,-0.321 -0.727,0.606 -0.09,0.538 -0.163,1.817 -0.164,2.842 0,1.811 0.03,1.892 0.989,2.817 0.546,0.524 1.647,1.28 2.447,1.68 1.438,0.719 4.617,1.915 5.192,1.953 0.163,0.01 0.366,-0.546 0.451,-1.237 z m 22.746,-4.208 c 1.291,-0.122 1.864,-0.295 2.036,-0.616 0.809,-1.512 6.208,-21.325 8.869,-32.548 2.157,-9.099 10.435,-49.606 12.139,-59.399 0.506,-2.911 1.347,-7.673 1.869,-10.583 1.173,-6.535 2.193,-13.524 2.43,-16.642 l 0.18,-2.355 -0.638,0.158 c -1.959,0.486 -7.13,0.773 -11.462,0.636 -8.758,-0.277 -17.785,-2.064 -25.046,-4.956 -1.45,-0.578 -2.742,-1.051 -2.871,-1.051 -0.129,0 -0.662,1.756 -1.184,3.903 -1.922,7.898 -4.36,21.133 -7.566,41.076 -2.088,12.982 -8.44,59.342 -9.562,69.785 -0.53,4.929 -0.557,5.67 -0.218,6 1.262,1.229 8.584,3.976 8.962,3.363 0.104,-0.169 0.4,-2.181 0.658,-4.471 1.508,-13.411 4.23,-21.942 9.663,-30.29 5.305,-8.149 7.292,-7.819 9.125,1.519 1.715,8.74 0.921,19.318 -2.375,31.636 -0.645,2.412 -1.173,4.525 -1.173,4.697 0,0.351 3.156,0.422 6.164,0.138 z m -1.606,-78.791 c -3.283,-0.795 -6.756,-3.327 -8.393,-6.121 -2.416,-4.122 -2.597,-9.654 -0.457,-13.953 1.239,-2.489 3.8,-5.079 6.144,-6.215 3.498,-1.695 6.364,-2.019 9.881,-1.12 2.572,0.658 4.122,1.559 6.16,3.58 2.663,2.641 4.068,6.069 4.068,9.925 0,9.163 -8.602,16.035 -17.403,13.904 z m 6.894,-1.754 c 2.842,-0.95 5.456,-3.02 6.989,-5.536 2.298,-3.771 2.226,-9.472 -0.167,-13.202 -2.583,-4.025 -7.588,-6.388 -11.914,-5.626 -6.039,1.063 -10.328,6.301 -10.328,12.61 0,5.435 2.976,9.811 7.981,11.734 1.959,0.752 5.221,0.761 7.439,0.02 z m -7.218,-0.473 c -5.179,-2.038 -8.08,-7.141 -7.389,-12.998 0.509,-4.32 4.168,-8.568 8.307,-9.646 5.341,-1.392 10.747,1.234 13.189,6.406 0.794,1.681 0.842,1.956 0.842,4.825 0,2.871 -0.05,3.143 -0.843,4.822 -1.479,3.122 -4.281,5.576 -7.516,6.583 -2.055,0.64 -4.977,0.643 -6.59,0.01 z m -45.623,75.24 c 7.541,-0.945 13.812,-1.819 13.935,-1.942 0.123,-0.124 0.516,-3.071 0.872,-6.55 0.885,-8.625 1.708,-15.666 1.885,-16.129 0.08,-0.211 0.06,-0.384 -0.05,-0.384 -0.11,0 -1.581,0.978 -3.269,2.173 -9.002,6.371 -15.312,10.745 -20.566,14.253 l -5.854,3.91 -0.564,2.995 c -0.642,3.407 -0.64,3.392 -0.328,3.392 0.127,0 6.401,-0.773 13.942,-1.718 z m 58.848,-125.967 c 1.874,-0.556 4.208,-2.827 4.852,-4.72 1.359,-3.997 -0.518,-7.917 -4.506,-9.41 -3.139,-1.174 -6.508,-0.214 -8.429,2.402 -2.275,3.099 -2.207,6.631 0.18,9.343 2.147,2.439 4.913,3.273 7.903,2.385 z m 14.966,-23.978 c 0.183,-0.183 -1.11,-6.314 -1.871,-8.874 l -0.373,-1.256 -4.838,-0.03 c -4.271,-0.03 -5.133,-0.108 -7.364,-0.699 -1.39,-0.367 -3.402,-1.041 -4.471,-1.496 -1.07,-0.455 -1.968,-0.795 -1.997,-0.756 -0.527,0.719 -2.577,3.891 -3.944,6.103 l -1.765,2.856 1.721,0.78 c 2.798,1.269 7.427,2.492 12.453,3.291 2.464,0.392 12.075,0.454 12.449,0.08 z m -56.502,290.436 c -0.145,-0.382 -0.264,-0.81 -0.264,-0.951 0,-0.141 -0.432,-0.511 -0.959,-0.822 l -0.959,-0.566 0.704,-0.513 c 0.387,-0.281 0.945,-0.987 1.241,-1.567 0.594,-1.164 0.622,-1.162 1.253,0.1 0.242,0.482 0.909,1.138 1.484,1.458 l 1.044,0.581 -0.715,0.179 c -0.762,0.192 -2.035,1.512 -2.035,2.111 0,0.689 -0.532,0.685 -0.794,-0.01 z m 24.173,-3.174 c -0.234,-0.609 0.114,-1.24 0.628,-1.141 0.574,0.111 0.775,0.999 0.295,1.304 -0.517,0.327 -0.751,0.286 -0.923,-0.163 z m -67.025,-3.162 c -0.507,-0.612 -0.226,-1.336 0.519,-1.336 0.419,0 0.687,0.171 0.746,0.476 0.09,0.475 -0.369,1.244 -0.746,1.244 -0.11,0 -0.343,-0.173 -0.519,-0.384 z m 10.097,-7.342 c -0.175,-0.175 -0.318,-0.568 -0.318,-0.873 0,-0.749 0.491,-1.191 1.323,-1.191 0.832,0 1.323,0.442 1.323,1.191 0,0.749 -0.491,1.19 -1.323,1.19 -0.378,0 -0.831,-0.142 -1.005,-0.317 z m 39.93,-0.192 c -0.529,-0.327 -0.236,-1.199 0.435,-1.295 0.44,-0.06 0.592,0.05 0.592,0.431 0,0.659 -0.575,1.143 -1.027,0.864 z m 27.526,-1.048 c -0.523,-0.331 -0.261,-1.221 0.36,-1.221 0.38,0 0.526,0.178 0.526,0.64 0,0.705 -0.339,0.928 -0.886,0.581 z m 4.369,-11.054 c -0.328,-0.329 -0.178,-1.609 0.229,-1.947 0.993,-0.825 2.314,0.885 1.394,1.806 -0.342,0.342 -1.335,0.428 -1.623,0.141 z m -92.517,-4.194 c -0.211,-0.64 -0.631,-1.116 -1.342,-1.522 -0.568,-0.325 -1.035,-0.686 -1.036,-0.802 0,-0.117 0.358,-0.338 0.797,-0.491 0.508,-0.177 1.047,-0.702 1.48,-1.442 0.758,-1.293 0.988,-1.296 1.41,-0.02 0.207,0.629 0.593,1.021 1.382,1.402 l 1.094,0.53 -0.952,0.562 c -0.532,0.314 -1.193,1.035 -1.5,1.637 -0.302,0.591 -0.656,1.075 -0.787,1.075 -0.132,0 -0.377,-0.419 -0.546,-0.93 z m 91.558,-9.243 c -0.701,-0.844 0.333,-2.171 1.158,-1.487 0.497,0.413 0.543,1.112 0.101,1.553 -0.424,0.425 -0.871,0.401 -1.259,-0.07 z m 14.919,-2.857 c 0.556,-4.132 0.712,-3.5 -1.332,-5.381 -2.122,-1.952 -2.091,-2.037 0.916,-2.522 1.07,-0.173 2.061,-0.445 2.202,-0.605 0.141,-0.159 0.694,-1.183 1.229,-2.274 0.543,-1.107 1.142,-1.984 1.356,-1.984 0.225,0 0.765,0.873 1.31,2.116 0.511,1.164 0.948,2.151 0.972,2.192 0.02,0.04 1.015,0.23 2.204,0.419 1.188,0.189 2.291,0.475 2.451,0.635 0.212,0.212 -0.196,0.75 -1.494,1.975 l -1.786,1.683 0.333,2.441 c 0.184,1.342 0.249,2.526 0.145,2.63 -0.181,0.18 -0.792,-0.108 -3.226,-1.523 l -1.089,-0.633 -1.837,1.11 c -2.438,1.473 -2.587,1.455 -2.354,-0.279 z m -100.239,0.151 c -0.1,-0.251 0,-0.62 0.236,-0.85 0.366,-0.366 0.447,-0.366 0.813,0 0.497,0.496 0.246,1.294 -0.406,1.294 -0.26,0 -0.55,-0.2 -0.643,-0.444 z m -7.89,-10.16 c -0.56,-0.327 -0.608,-1.382 -0.08,-1.818 0.209,-0.174 0.715,-0.278 1.124,-0.231 0.603,0.07 0.761,0.233 0.833,0.866 0.132,1.167 -0.844,1.783 -1.875,1.183 z m 101.546,-8.687 c -0.505,-0.975 -1.533,-1.79 -2.538,-2.011 -1.056,-0.232 -0.985,-0.561 0.168,-0.778 0.859,-0.161 1.025,-0.341 1.723,-1.881 0.425,-0.937 0.822,-1.704 0.883,-1.704 0.06,0 0.3,0.651 0.531,1.446 0.402,1.383 0.478,1.467 1.739,1.915 0.725,0.257 1.317,0.529 1.315,0.604 0,0.08 -0.468,0.332 -1.038,0.571 -0.739,0.311 -1.195,0.748 -1.59,1.522 -0.305,0.597 -0.609,1.086 -0.675,1.086 -0.07,0 -0.299,-0.346 -0.518,-0.77 z m 11.119,-13.404 c -0.815,-0.815 -0.336,-1.965 0.818,-1.965 1.15,0 1.399,1.557 0.34,2.124 -0.628,0.336 -0.669,0.33 -1.158,-0.159 z m -110.419,-3.545 c -0.468,-0.82 -0.836,-1.111 -1.698,-1.343 l -1.1,-0.297 1.036,-0.577 c 0.699,-0.39 1.203,-0.943 1.545,-1.698 0.28,-0.616 0.578,-1.119 0.662,-1.117 0.08,0 0.354,0.48 0.599,1.065 0.333,0.791 0.702,1.169 1.45,1.481 l 1.004,0.42 -0.954,0.489 c -0.662,0.34 -1.085,0.817 -1.382,1.559 -0.235,0.587 -0.458,1.068 -0.496,1.066 -0.04,0 -0.337,-0.473 -0.666,-1.048 z m 104.315,-14.636 c -0.291,-0.468 -0.987,-1.073 -1.546,-1.346 l -1.017,-0.497 0.994,-0.562 c 0.716,-0.404 1.109,-0.876 1.402,-1.686 0.225,-0.619 0.487,-1.125 0.582,-1.125 0.1,0 0.383,0.547 0.638,1.215 0.38,0.996 0.661,1.298 1.555,1.678 l 1.092,0.464 -0.997,0.328 c -0.736,0.244 -1.133,0.599 -1.524,1.365 -0.291,0.57 -0.556,1.031 -0.589,1.026 -0.03,-0.01 -0.299,-0.393 -0.59,-0.86 z m -100.392,-5.627 c -0.683,-1.647 -1.17,-2.055 -3.155,-2.645 -0.757,-0.224 -1.312,-0.513 -1.233,-0.64 0.08,-0.128 0.747,-0.432 1.484,-0.677 1.448,-0.481 1.996,-1.127 2.799,-3.3 0.634,-1.717 0.818,-1.809 1.283,-0.642 1.193,2.999 1.195,3.001 2.975,3.851 0.937,0.447 1.602,0.906 1.478,1.019 -0.123,0.114 -0.701,0.355 -1.283,0.536 -1.383,0.43 -2.029,1.046 -2.781,2.651 -0.339,0.724 -0.694,1.317 -0.787,1.317 -0.09,0 -0.445,-0.662 -0.78,-1.47 z m 14.27,-8.055 c -0.311,-0.437 -0.736,-0.794 -0.944,-0.794 -0.618,0 -0.432,-0.459 0.256,-0.631 0.403,-0.101 0.75,-0.474 0.948,-1.021 0.302,-0.829 0.323,-0.839 0.547,-0.268 0.128,0.327 0.599,0.816 1.045,1.088 l 0.813,0.494 -0.651,0.427 c -0.358,0.234 -0.728,0.667 -0.821,0.962 -0.234,0.737 -0.53,0.673 -1.193,-0.257 z m 17.376,-98.161 c -0.08,-0.218 -0.275,-0.841 -0.442,-1.385 -0.344,-1.12 -1.241,-1.936 -2.409,-2.192 -0.979,-0.215 -0.871,-0.718 0.202,-0.938 1.212,-0.248 1.418,-0.453 2.213,-2.201 0.814,-1.79 0.69,-1.837 1.603,0.6 0.267,0.712 0.638,1.029 1.81,1.549 l 1.475,0.654 -1.331,0.498 c -1.21,0.453 -1.406,0.649 -2.157,2.155 -0.519,1.042 -0.877,1.51 -0.964,1.26 z m 79.976,-19.513 c -0.146,-0.4 -0.322,-0.887 -0.391,-1.081 -0.07,-0.195 -0.482,-0.489 -0.918,-0.654 -0.943,-0.355 -1.018,-0.643 -0.198,-0.76 0.406,-0.06 0.757,-0.442 1.104,-1.209 0.602,-1.333 0.877,-1.403 1.254,-0.323 0.153,0.441 0.616,0.976 1.027,1.189 1.092,0.565 1.157,0.849 0.297,1.294 -0.421,0.218 -0.966,0.818 -1.211,1.334 -0.245,0.516 -0.502,0.938 -0.572,0.938 -0.07,0 -0.246,-0.328 -0.392,-0.728 z m -73.64,-0.897 c -0.344,-1.722 -1.402,-3.064 -3.212,-4.076 -0.943,-0.528 -1.715,-1.128 -1.715,-1.333 0,-0.206 0.115,-0.374 0.255,-0.374 0.14,0 0.914,-0.247 1.719,-0.548 1.342,-0.503 1.555,-0.701 2.554,-2.382 0.599,-1.008 1.186,-1.833 1.304,-1.833 0.119,0 0.404,0.685 0.633,1.521 0.633,2.314 0.962,2.777 2.587,3.644 0.824,0.44 1.576,0.877 1.671,0.972 0.1,0.1 -0.544,0.374 -1.42,0.619 -1.897,0.532 -2.524,1.133 -3.17,3.034 -0.572,1.682 -0.971,1.932 -1.206,0.756 z" id="path191" /></g></svg>